<?xml version="1.0" encoding="UTF-8"?>
<svg id="Capa_2" data-name="Capa 2" xmlns="http://www.w3.org/2000/svg" viewBox="0 0 504.35 138.07">
  <defs>
    <style>
      .cls-1 {
        fill: #010101;
        stroke-width: 0px;
      }
    </style>
  </defs>
  <g id="Capa_1-2" data-name="Capa 1">
    <g>
      <g>
        <polygon class="cls-1" points="0 132.63 8.78 132.63 8.78 28.07 8.85 19.45 43.93 3.64 43.93 132.63 52.72 132.63 52.72 135.44 0 135.44 0 132.63"/>
        <polygon class="cls-1" points="103.15 44.06 103.15 132.63 111.94 132.63 111.94 135.44 59.22 135.44 59.22 132.63 68.01 132.63 68.01 62.27 103.15 44.06"/>
        <polygon class="cls-1" points="217.03 49.33 205.25 57.94 166.07 138.07 161.5 138.07 124.25 57.94 112.47 49.33 173.8 49.33 162.02 57.94 177.24 99.33 196.29 57.94 183.99 49.33 217.03 49.33"/>
        <path class="cls-1" d="m292.42,119.63c-7.38,11.24-19.16,17.57-35.5,17.57-24.78,0-45.16-17.23-45.16-44.46,0-25.66,17.22-46.92,45.34-46.92,16.52,0,27.94,9.67,27.94,22.49,0,14.59-11.24,27.42-32.33,35.33,10.01,9.84,22.67,16.34,34.44,16.34,1.76,0,3.51-.17,5.09-.53l.18.18Zm-58.87-57.29c0,14.59,7.56,29.35,18.09,40.24,4.93-6.32,6.86-13.36,6.86-22.32,0-15.29-10.19-28.29-17.75-28.29-4.57,0-7.2,3.86-7.2,10.37"/>
        <path class="cls-1" d="m66.95,18.1c0-11.2,7.09-18.1,17.92-18.1s17.92,6.9,17.92,18.1-7.09,18.11-17.92,18.11-17.92-6.91-17.92-18.11"/>
        <rect class="cls-1" x="316.89" y="67.83" width="26.75" height="28.11"/>
      </g>
      <path class="cls-1" d="m434.81,4.92s27.94,11.72,27.94,63.54c0,40.15-15.37,63.66-38.7,63.66h-2.9V4.81h-55.88l16.1,9.77v117.55h-14.47v2.89h59.86c47.74,0,77.58-23.87,77.58-66.73,0-39.56-25.47-61.63-69.53-63.36Z"/>
    </g>
  </g>
</svg>